<svg width="315.407" height="102.201" viewBox="3.3454541525701025 -4.900375651775207 321.40748709622187 108.20062894666493" xmlns="http://www.w3.org/2000/svg"><g id="svgGroup" stroke-linecap="round" fill-rule="evenodd" font-size="9pt" stroke="#000" stroke-width="0.25mm" fill="none" style="stroke:#000;stroke-width:0.25mm;fill:none"><path d="M 29.255 102.2 Q 23.255 102.2 18.455 100.75 Q 13.655 99.3 10.105 97.05 Q 6.555 94.8 4.105 92.35 A 39.892 39.892 0 0 1 2.568 90.731 Q 1.242 89.247 0.455 88 A 4.325 4.325 0 0 1 0.235 87.608 Q 0 87.127 0 86.752 A 1.127 1.127 0 0 1 0.005 86.65 A 1.011 1.011 0 0 1 0.142 86.24 Q 0.316 85.937 0.702 85.62 A 4.433 4.433 0 0 1 0.855 85.5 A 5.402 5.402 0 0 1 1.196 85.27 Q 1.9 84.836 2.278 84.979 A 0.484 0.484 0 0 1 2.405 85.05 Q 2.855 85.4 3.255 85.8 A 25.675 25.675 0 0 0 6.301 89.29 A 33.73 33.73 0 0 0 9.305 91.85 A 31.735 31.735 0 0 0 15.052 95.296 A 38.618 38.618 0 0 0 18.055 96.55 A 29.471 29.471 0 0 0 24.773 98.14 A 37.406 37.406 0 0 0 29.255 98.4 A 34.554 34.554 0 0 0 37.24 97.502 A 30.598 30.598 0 0 0 40.605 96.5 A 29.393 29.393 0 0 0 47.687 92.83 A 26.71 26.71 0 0 0 49.755 91.2 Q 53.655 87.8 55.805 83.2 A 23.041 23.041 0 0 0 57.866 75.234 A 27.688 27.688 0 0 0 57.955 73 A 21.555 21.555 0 0 0 57.657 69.329 A 15.728 15.728 0 0 0 56.505 65.5 Q 55.055 62.3 52.455 59.75 A 32.336 32.336 0 0 0 49.194 56.97 A 42.401 42.401 0 0 0 46.155 54.9 Q 42.455 52.6 37.855 50 Q 34.955 48.4 32.105 46.65 A 53.852 53.852 0 0 1 27.423 43.435 A 48.903 48.903 0 0 1 26.805 42.95 Q 24.355 41 22.505 38.5 A 20.491 20.491 0 0 1 19.955 33.88 A 23.697 23.697 0 0 1 19.555 32.8 A 19.731 19.731 0 0 1 18.669 28.944 A 26.5 26.5 0 0 1 18.455 25.5 A 26.216 26.216 0 0 1 19.294 18.766 A 22.86 22.86 0 0 1 20.605 15.1 Q 22.755 10.4 26.605 7 Q 30.455 3.6 35.555 1.8 A 32.135 32.135 0 0 1 45.284 0.019 A 36.711 36.711 0 0 1 46.455 0 A 38.282 38.282 0 0 1 51.772 0.352 A 27.827 27.827 0 0 1 57.055 1.6 Q 61.655 3.2 65.405 5.95 Q 69.155 8.7 72.155 12.4 A 3.558 3.558 0 0 1 72.385 12.745 Q 72.721 13.323 72.605 13.75 A 1.897 1.897 0 0 1 72.408 14.205 Q 72.297 14.396 72.136 14.592 A 4.321 4.321 0 0 1 71.855 14.9 A 1.878 1.878 0 0 1 71.197 15.182 Q 70.887 15.248 70.555 15.2 A 1.945 1.945 0 0 1 69.898 14.975 Q 69.648 14.839 69.399 14.626 A 4.131 4.131 0 0 1 69.155 14.4 Q 66.355 11.5 63.155 9.05 A 26.336 26.336 0 0 0 56.532 5.383 A 29.768 29.768 0 0 0 55.905 5.15 A 23.242 23.242 0 0 0 51.767 4.109 Q 49.23 3.7 46.255 3.7 A 29.271 29.271 0 0 0 40.498 4.247 A 24.53 24.53 0 0 0 36.905 5.25 Q 32.655 6.8 29.405 9.7 Q 26.155 12.6 24.305 16.6 A 20.253 20.253 0 0 0 22.5 23.92 A 23.986 23.986 0 0 0 22.455 25.4 A 22.844 22.844 0 0 0 22.669 28.615 Q 22.921 30.388 23.471 31.888 A 13.224 13.224 0 0 0 23.755 32.6 Q 25.055 35.6 27.405 38.05 Q 29.755 40.5 33.055 42.65 Q 36.355 44.8 40.255 47.1 Q 44.255 49.5 48.105 51.8 Q 51.955 54.1 55.105 56.95 Q 58.255 59.8 60.105 63.65 Q 61.928 67.446 61.954 72.65 A 30.203 30.203 0 0 1 61.955 72.8 A 27.791 27.791 0 0 1 60.489 81.89 A 25.971 25.971 0 0 1 59.455 84.45 Q 56.955 89.8 52.505 93.8 A 31.564 31.564 0 0 1 42.983 99.646 A 36.185 36.185 0 0 1 42.055 100 A 36.644 36.644 0 0 1 30.101 102.192 A 41.581 41.581 0 0 1 29.255 102.2 Z M 296.655 90.6 L 303.955 65.8 A 43.601 43.601 0 0 0 304.696 63.088 Q 305.361 60.279 305.361 58.239 A 11.857 11.857 0 0 0 305.355 57.85 Q 305.29 55.873 304.615 54.568 A 4.443 4.443 0 0 0 303.705 53.35 A 5.162 5.162 0 0 0 301.406 52.126 Q 300.603 51.921 299.653 51.902 A 9.821 9.821 0 0 0 299.455 51.9 A 12.256 12.256 0 0 0 296.818 52.21 Q 295.561 52.487 294.17 53.014 A 27.62 27.62 0 0 0 292.205 53.85 Q 289.082 55.318 285.648 58.37 A 49.485 49.485 0 0 0 283.355 60.55 Q 279.848 64.094 276.23 69.67 A 99.69 99.69 0 0 0 273.755 73.7 Q 270.003 80.132 266.251 89.142 A 214.539 214.539 0 0 0 263.955 94.9 L 262.355 100.3 Q 262.288 100.835 262.064 101.169 A 1.195 1.195 0 0 1 261.805 101.45 A 1.286 1.286 0 0 1 261.45 101.639 Q 261.094 101.767 260.547 101.794 A 6.102 6.102 0 0 1 260.255 101.8 A 3.991 3.991 0 0 1 259.705 101.765 Q 259.427 101.726 259.202 101.645 A 1.56 1.56 0 0 1 258.755 101.4 Q 258.317 101.05 258.415 100.471 A 1.588 1.588 0 0 1 258.455 100.3 L 272.955 50.3 A 4.675 4.675 0 0 1 273.151 49.845 Q 273.379 49.391 273.654 49.15 Q 274.055 48.8 275.055 48.8 A 3.991 3.991 0 0 1 275.604 48.836 Q 275.883 48.874 276.107 48.956 A 1.56 1.56 0 0 1 276.555 49.2 A 0.929 0.929 0 0 1 276.893 49.795 Q 276.944 50.097 276.855 50.5 L 269.055 77.2 A 111.589 111.589 0 0 1 272.596 70.643 Q 274.959 66.615 277.355 63.45 A 63.87 63.87 0 0 1 280.88 59.168 Q 282.683 57.173 284.467 55.601 A 34.859 34.859 0 0 1 285.655 54.6 A 41.533 41.533 0 0 1 288.659 52.385 Q 291.105 50.757 293.355 49.85 A 23.132 23.132 0 0 1 296.112 48.925 Q 298.11 48.4 299.855 48.4 A 11.73 11.73 0 0 1 302.833 48.763 A 9.327 9.327 0 0 1 305.705 50.05 Q 308.065 51.64 308.94 55.085 A 13.64 13.64 0 0 1 309.005 55.35 Q 309.691 58.296 308.585 62.967 A 39.932 39.932 0 0 1 307.955 65.3 L 300.355 90.3 A 40.801 40.801 0 0 0 299.875 92.05 Q 299.681 92.835 299.55 93.522 A 16.978 16.978 0 0 0 299.355 94.8 A 9.821 9.821 0 0 0 299.312 95.295 Q 299.248 96.347 299.465 97.02 A 2.14 2.14 0 0 0 299.655 97.45 A 1.589 1.589 0 0 0 300.531 98.148 Q 300.963 98.3 301.555 98.3 Q 303.655 98.3 305.605 96.9 A 27.278 27.278 0 0 0 308.142 94.826 A 33.018 33.018 0 0 0 309.455 93.55 Q 311.355 91.6 312.655 89.8 Q 313.064 89.226 313.441 89.056 A 0.836 0.836 0 0 1 313.605 89 Q 314.039 88.904 314.614 89.367 A 3.235 3.235 0 0 1 314.655 89.4 A 4.009 4.009 0 0 1 314.948 89.641 Q 315.407 90.059 315.407 90.397 A 0.484 0.484 0 0 1 315.405 90.45 Q 315.365 90.807 315.106 91.194 A 2.987 2.987 0 0 1 314.955 91.4 A 25.963 25.963 0 0 1 313.654 93.295 Q 312.714 94.55 311.505 95.9 Q 309.355 98.3 306.605 100.05 Q 303.855 101.8 300.855 101.8 Q 299.371 101.8 298.295 101.359 A 4.554 4.554 0 0 1 297.855 101.15 A 4.009 4.009 0 0 1 296.175 99.402 A 5.05 5.05 0 0 1 296.055 99.15 A 5.181 5.181 0 0 1 295.711 98.03 Q 295.511 96.997 295.605 95.65 Q 295.755 93.5 296.655 90.6 Z M 103.255 100.3 L 117.755 50.3 A 4.675 4.675 0 0 1 117.951 49.845 Q 118.179 49.391 118.454 49.15 Q 118.855 48.8 119.855 48.8 A 3.991 3.991 0 0 1 120.404 48.836 Q 120.683 48.874 120.907 48.956 A 1.56 1.56 0 0 1 121.355 49.2 A 0.929 0.929 0 0 1 121.693 49.795 Q 121.744 50.097 121.655 50.5 L 113.955 76.9 A 111.15 111.15 0 0 1 117.442 70.365 Q 119.16 67.403 120.895 64.91 A 61.307 61.307 0 0 1 122.055 63.3 Q 125.47 58.719 128.781 55.664 A 35.845 35.845 0 0 1 130.105 54.5 Q 133.298 51.833 136.197 50.407 A 19.413 19.413 0 0 1 137.555 49.8 A 22.767 22.767 0 0 1 140.182 48.92 Q 141.534 48.563 142.763 48.451 A 12.062 12.062 0 0 1 143.855 48.4 A 10.855 10.855 0 0 1 147.206 48.903 A 9.545 9.545 0 0 1 149.505 50 A 6.396 6.396 0 0 1 151.779 52.658 Q 152.235 53.608 152.495 54.791 A 12.82 12.82 0 0 1 152.605 55.35 A 11.372 11.372 0 0 1 152.754 56.74 Q 152.879 59.317 152.035 62.826 A 42.007 42.007 0 0 1 151.355 65.3 L 140.955 100.3 A 3.106 3.106 0 0 1 140.801 100.767 Q 140.61 101.212 140.305 101.45 A 1.286 1.286 0 0 1 139.95 101.639 Q 139.594 101.767 139.047 101.794 A 6.102 6.102 0 0 1 138.755 101.8 Q 137.855 101.8 137.305 101.4 A 0.983 0.983 0 0 1 137.098 101.203 Q 136.823 100.841 137.055 100.3 L 147.455 65.8 Q 148.955 60.9 149.005 57.85 A 12.715 12.715 0 0 0 149.006 57.642 Q 149.006 54.75 147.655 53.35 Q 146.525 52.181 144.42 51.954 A 9.985 9.985 0 0 0 143.355 51.9 Q 141.05 51.9 138.186 53.021 A 25.828 25.828 0 0 0 136.405 53.8 A 20.376 20.376 0 0 0 133.365 55.633 Q 131.904 56.683 130.374 58.092 A 46.721 46.721 0 0 0 127.955 60.5 A 51.483 51.483 0 0 0 124.523 64.599 Q 122.889 66.755 121.204 69.349 A 112.113 112.113 0 0 0 118.555 73.65 A 101.03 101.03 0 0 0 114.894 80.524 Q 112.994 84.423 111.11 88.986 A 203.19 203.19 0 0 0 108.855 94.7 L 107.155 100.3 Q 107.088 100.835 106.864 101.169 A 1.195 1.195 0 0 1 106.605 101.45 A 1.286 1.286 0 0 1 106.25 101.639 Q 105.894 101.767 105.347 101.794 A 6.102 6.102 0 0 1 105.055 101.8 A 3.991 3.991 0 0 1 104.505 101.765 Q 104.227 101.726 104.002 101.645 A 1.56 1.56 0 0 1 103.555 101.4 Q 103.117 101.05 103.215 100.471 A 1.588 1.588 0 0 1 103.255 100.3 Z M 173.255 90.6 L 180.455 65.8 Q 181.955 60.9 182.005 57.85 A 13.652 13.652 0 0 0 182.006 57.627 Q 182.006 54.747 180.755 53.35 A 4.045 4.045 0 0 0 178.978 52.219 Q 178.32 52 177.516 51.931 A 8.976 8.976 0 0 0 176.755 51.9 A 9.945 9.945 0 0 0 174.501 52.181 Q 173.434 52.43 172.246 52.9 A 24.784 24.784 0 0 0 170.055 53.9 A 22.594 22.594 0 0 0 167.039 55.788 Q 165.574 56.861 164.022 58.281 A 52.713 52.713 0 0 0 161.555 60.7 A 47.065 47.065 0 0 0 158.069 64.821 Q 156.419 66.996 154.738 69.628 A 102.719 102.719 0 0 0 152.105 74 A 109.072 109.072 0 0 0 148.46 81.008 Q 146.561 84.981 144.655 89.639 A 224.664 224.664 0 0 0 142.355 95.5 L 140.855 95.5 A 138.979 138.979 0 0 1 144.137 85.379 Q 146.389 79.285 149.005 74.25 A 92.411 92.411 0 0 1 152.999 67.277 Q 155.089 63.991 157.253 61.316 A 50.268 50.268 0 0 1 158.705 59.6 A 53.5 53.5 0 0 1 162.619 55.597 Q 165.649 52.826 168.605 51.15 A 26.963 26.963 0 0 1 171.745 49.613 Q 173.378 48.95 174.873 48.649 A 12.084 12.084 0 0 1 177.255 48.4 A 10.159 10.159 0 0 1 180.463 48.893 A 8.967 8.967 0 0 1 182.705 50 A 6.416 6.416 0 0 1 184.781 52.393 Q 185.437 53.651 185.755 55.35 A 10.775 10.775 0 0 1 185.918 56.765 Q 186.098 60.205 184.455 65.3 L 176.855 90.3 A 35.388 35.388 0 0 0 176.381 92.05 Q 176.003 93.619 175.905 94.8 Q 175.795 96.121 176.034 96.93 A 2.326 2.326 0 0 0 176.255 97.45 Q 176.722 98.245 177.889 98.297 A 3.746 3.746 0 0 0 178.055 98.3 Q 180.042 98.3 182.078 96.918 A 10.918 10.918 0 0 0 182.105 96.9 A 23.65 23.65 0 0 0 185.304 94.262 A 26.863 26.863 0 0 0 186.005 93.55 A 33.676 33.676 0 0 0 187.644 91.696 Q 188.411 90.759 189.016 89.858 A 20.584 20.584 0 0 0 189.055 89.8 A 4.289 4.289 0 0 1 189.366 89.471 Q 189.705 89.151 190.009 89.041 A 1.01 1.01 0 0 1 190.155 89 Q 190.583 88.915 191.011 89.269 A 2.071 2.071 0 0 1 191.155 89.4 A 4.335 4.335 0 0 1 191.466 89.656 Q 191.769 89.931 191.884 90.171 A 0.647 0.647 0 0 1 191.955 90.45 A 1.17 1.17 0 0 1 191.867 90.881 Q 191.805 91.039 191.699 91.202 A 2.548 2.548 0 0 1 191.555 91.4 Q 190.437 93.205 188.655 95.231 A 43.59 43.59 0 0 1 188.055 95.9 Q 185.855 98.3 183.105 100.05 Q 180.355 101.8 177.355 101.8 Q 175.871 101.8 174.795 101.359 A 4.554 4.554 0 0 1 174.355 101.15 A 4.009 4.009 0 0 1 172.675 99.402 A 5.05 5.05 0 0 1 172.555 99.15 A 5.202 5.202 0 0 1 172.21 98.032 Q 172.011 97.013 172.105 95.7 A 14.502 14.502 0 0 1 172.333 94.018 Q 172.626 92.487 173.255 90.6 Z M 214.886 101.819 A 21.604 21.604 0 0 0 219.055 102.2 Q 225.055 102.2 229.755 99.9 Q 234.455 97.6 238.005 93.85 Q 241.555 90.1 243.805 85.45 Q 246.055 80.8 247.205 76 A 44.685 44.685 0 0 0 247.905 72.471 A 36.179 36.179 0 0 0 248.355 66.9 Q 248.355 61.3 246.355 57.1 Q 244.355 52.9 240.555 50.65 A 15.597 15.597 0 0 0 235.805 48.831 A 20.957 20.957 0 0 0 231.455 48.4 A 29.544 29.544 0 0 0 227.389 48.672 A 22.917 22.917 0 0 0 218.705 51.65 Q 213.255 54.9 209.555 60.1 Q 205.855 65.3 203.955 71.35 A 44.615 44.615 0 0 0 202.953 75.088 A 36.611 36.611 0 0 0 202.055 83 A 28.894 28.894 0 0 0 202.29 86.749 A 22.568 22.568 0 0 0 204.005 93 A 18.235 18.235 0 0 0 204.419 93.873 A 14.872 14.872 0 0 0 209.705 99.8 A 13.236 13.236 0 0 0 210.279 100.148 Q 212.326 101.316 214.886 101.819 Z M 76.155 90.5 L 87.755 50.3 A 4.675 4.675 0 0 1 87.951 49.845 Q 88.179 49.391 88.454 49.15 Q 88.855 48.8 89.855 48.8 A 3.991 3.991 0 0 1 90.404 48.836 Q 90.683 48.874 90.907 48.956 A 1.56 1.56 0 0 1 91.355 49.2 A 0.929 0.929 0 0 1 91.693 49.795 Q 91.744 50.097 91.655 50.5 L 80.055 90.3 Q 78.855 94.3 79.005 96.3 A 2.94 2.94 0 0 0 79.176 97.128 Q 79.623 98.3 81.155 98.3 A 6.577 6.577 0 0 0 83.484 97.855 Q 84.306 97.546 85.143 97.021 A 11.377 11.377 0 0 0 85.255 96.95 A 17.231 17.231 0 0 0 88.605 94.113 A 19.696 19.696 0 0 0 89.105 93.55 Q 90.855 91.5 92.255 89.8 Q 92.664 89.226 93.041 89.056 A 0.836 0.836 0 0 1 93.205 89 Q 93.639 88.904 94.214 89.367 A 3.235 3.235 0 0 1 94.255 89.4 A 3.073 3.073 0 0 1 94.572 89.658 Q 94.967 90.029 95.005 90.4 A 1.116 1.116 0 0 1 95.01 90.511 Q 95.01 90.93 94.694 91.35 A 2.257 2.257 0 0 1 94.655 91.4 A 27.509 27.509 0 0 1 93.354 93.305 Q 92.649 94.255 91.792 95.268 A 49.358 49.358 0 0 1 91.205 95.95 Q 89.055 98.4 86.305 100.1 Q 83.555 101.8 80.555 101.8 A 6.774 6.774 0 0 1 78.668 101.554 A 4.649 4.649 0 0 1 75.755 99.15 Q 74.363 96.516 76.134 90.569 A 37.075 37.075 0 0 1 76.155 90.5 Z M 219.355 98.7 Q 225.555 98.7 230.205 95.7 Q 234.855 92.7 237.955 87.9 Q 241.055 83.1 242.705 77.65 A 40.202 40.202 0 0 0 243.98 72.123 A 31.044 31.044 0 0 0 244.355 67.4 A 24.087 24.087 0 0 0 244.036 63.387 A 17.501 17.501 0 0 0 242.805 59.2 A 13.184 13.184 0 0 0 240.723 55.871 A 11.376 11.376 0 0 0 238.355 53.8 Q 235.616 52.006 231.54 51.906 A 19.809 19.809 0 0 0 231.055 51.9 A 21.128 21.128 0 0 0 224.65 52.843 A 18.574 18.574 0 0 0 220.405 54.8 Q 215.755 57.7 212.605 62.45 Q 209.455 67.2 207.755 72.6 A 37.836 37.836 0 0 0 206.38 78.517 A 30.465 30.465 0 0 0 206.055 82.9 Q 206.055 87.5 207.605 91.15 A 13.274 13.274 0 0 0 209.624 94.506 A 11.337 11.337 0 0 0 212.155 96.75 A 11.93 11.93 0 0 0 216.787 98.5 A 15.883 15.883 0 0 0 219.355 98.7 Z M 94.044 31.196 A 5.573 5.573 0 0 0 95.155 31.3 A 5.892 5.892 0 0 0 95.722 31.274 A 4.063 4.063 0 0 0 98.705 29.65 A 6.547 6.547 0 0 0 99.48 28.335 A 7.015 7.015 0 0 0 100.055 25.8 A 3.752 3.752 0 0 0 99.991 25.092 A 2.423 2.423 0 0 0 99.055 23.55 A 3.219 3.219 0 0 0 98.52 23.227 Q 97.636 22.8 96.355 22.8 A 5.694 5.694 0 0 0 95.917 22.817 A 4.198 4.198 0 0 0 92.855 24.4 A 5.607 5.607 0 0 0 91.84 26.299 A 6.752 6.752 0 0 0 91.555 28.3 A 3.752 3.752 0 0 0 91.618 29.009 A 2.423 2.423 0 0 0 92.555 30.55 A 3.284 3.284 0 0 0 92.819 30.729 Q 93.357 31.056 94.044 31.196 Z"/></g></svg>